<svg width="92" height="27" viewBox="0 0 92 27" fill="none" xmlns="http://www.w3.org/2000/svg">
<path d="M91.2372 14.7981L82.0332 25.9884C81.7375 26.3465 81.3678 26.5255 80.9981 26.5255C80.6285 26.5255 80.2589 26.3465 79.9632 25.9884C79.3717 25.2722 79.3717 24.1532 79.9632 23.437L86.6537 15.2905H65.0666C64.2534 15.2905 63.588 14.4848 63.588 13.5001C63.588 12.5153 64.2534 11.7096 65.0666 11.7096H86.6537L79.9632 3.56312C79.3717 2.84695 79.3717 1.72792 79.9632 1.01174C80.5546 0.295565 81.4787 0.295565 82.0701 1.01174L91.2742 12.202C91.8287 12.9629 91.8287 14.1267 91.2372 14.7981Z" fill="#FF5722"/>
<rect y="11.307" width="88.7142" height="4.47534" rx="2.23767" fill="#FF5722"/>
</svg>
