<svg width="29" height="27" viewBox="0 0 29 27" fill="none" xmlns="http://www.w3.org/2000/svg">
<path d="M28.2372 14.7981L19.0332 25.9884C18.7375 26.3465 18.3678 26.5255 17.9981 26.5255C17.6285 26.5255 17.2589 26.3465 16.9632 25.9884C16.3717 25.2722 16.3717 24.1532 16.9632 23.437L23.6537 15.2905H2.06658C1.25337 15.2905 0.588013 14.4848 0.588013 13.5001C0.588013 12.5153 1.25337 11.7096 2.06658 11.7096H23.6537L16.9632 3.56312C16.3717 2.84695 16.3717 1.72792 16.9632 1.01174C17.5546 0.295565 18.4787 0.295565 19.0701 1.01174L28.2742 12.202C28.8287 12.9629 28.8287 14.1267 28.2372 14.7981Z" fill="#FF5722"/>
</svg>
